#Comment line ignore any data following # character 
#Hierarchical Translation and Rotation (.htr) file 
[Header]	
#Header keywords are followed by a single value 
FileType HTR		#Single word string
DataType HTRS		#Translation followed by rotation and scale data
FileVersion 1		#integer
NumSegments 84		#integer
NumFrames 2		#integer
DataFrameRate 30		#integer, data frame rate in this file
EulerRotationOrder ZYX
CalibrationUnits mm
RotationUnits Degrees
GlobalAxisofGravity Y
BoneLengthAxis Y
ScaleFactor 1.00
[SegmentNames&Hierarchy]
#CHILD	PARENT
MASTER GLOBAL
root MASTER
chest root
L_mid_tent01 root
R_mid_tent01 root
spine01 root
Bip01_Neck chest
L_humerus chest
R_humerus chest
weapon_bone chest
Bip01_Head Bip01_Neck
eye_left_bone Bip01_Head
eye_right_bone Bip01_Head
L_forearm L_humerus
L_front_hand L_forearm
L_weapon_bone L_forearm
L_front_hand01_01 L_front_hand
L_front_hand02_01 L_front_hand
L_front_hand03_01 L_front_hand
L_front_hand01_02 L_front_hand01_01
L_front_hand02_02 L_front_hand02_01
L_front_hand03_02 L_front_hand03_01
R_forearm R_humerus
R_front_hand R_forearm
R_weapon_bone R_forearm
R_front_hand01_01 R_front_hand
R_front_hand02_01 R_front_hand
R_front_hand03_01 R_front_hand
R_front_hand01_02 R_front_hand01_01
R_front_hand02_02 R_front_hand02_01
R_front_hand03_02 R_front_hand03_01
null_rope01_connect L_mid_tent01
Rope1_Seg01 null_rope01_connect
Rope1_Seg02 Rope1_Seg01
Rope1_Seg03 Rope1_Seg02
Rope1_Seg04 Rope1_Seg03
Rope1_Seg05 Rope1_Seg04
Rope1_Seg06 Rope1_Seg05
Rope1_Seg07 Rope1_Seg06
Rope1_Seg09 Rope1_Seg07
L_mid_hand01 Rope1_Seg09
L_mid_hand02 Rope1_Seg09
L_mid_hand03 Rope1_Seg09
null_rope02_connect R_mid_tent01
Rope2_Seg01 null_rope02_connect
Rope2_Seg02 Rope2_Seg01
Rope2_Seg03 Rope2_Seg02
Rope2_Seg04 Rope2_Seg03
Rope2_Seg05 Rope2_Seg04
Rope2_Seg06 Rope2_Seg05
Rope2_Seg07 Rope2_Seg06
Rope2_Seg09 Rope2_Seg07
R_mid_hand01 Rope2_Seg09
R_mid_hand02 Rope2_Seg09
R_mid_hand03 Rope2_Seg09
spine02 spine01
spine03 spine02
pelvis spine03
null_rope03_connect pelvis
null_rope04_connect pelvis
Rope3_Seg01 null_rope03_connect
Rope3_Seg02 Rope3_Seg01
Rope3_Seg03 Rope3_Seg02
Rope3_Seg04 Rope3_Seg03
Rope3_Seg05 Rope3_Seg04
Rope3_Seg06 Rope3_Seg05
Rope3_Seg07 Rope3_Seg06
Rope3_Seg08 Rope3_Seg07
Rope3_Seg09 Rope3_Seg08
R_rear_hand01 Rope3_Seg09
R_rear_hand02 Rope3_Seg09
R_rear_hand03 Rope3_Seg09
Rope4_Seg01 null_rope04_connect
Rope4_Seg02 Rope4_Seg01
Rope4_Seg03 Rope4_Seg02
Rope4_Seg04 Rope4_Seg03
Rope4_Seg05 Rope4_Seg04
Rope4_Seg06 Rope4_Seg05
Rope4_Seg07 Rope4_Seg06
Rope4_Seg08 Rope4_Seg07
Rope4_Seg09 Rope4_Seg08
L_rear_hand01 Rope4_Seg09
L_rear_hand02 Rope4_Seg09
L_rear_hand03 Rope4_Seg09
[BasePosition]
#SegmentName Tx, Ty, Tz, Rx, Ry, Rz, BoneLength
MASTER 0.000000 0.000000 0.000000 -90.000000 0.000000 0.000000 10.000000 
root 0.000000 0.000000 0.000000 0.000000 0.000000 0.000000 10.000000 
chest 0.000000 0.000000 0.000000 0.000000 0.000000 0.000000 10.000000 
L_mid_tent01 0.000000 0.000000 0.000000 0.000000 0.000000 0.000000 10.000000 
R_mid_tent01 0.000000 0.000000 0.000000 0.000000 0.000000 0.000000 10.000000 
spine01 0.000000 0.000000 0.000000 0.000000 0.000000 0.000000 10.000000 
Bip01_Neck 0.000000 0.000000 0.000000 0.000000 0.000000 0.000000 10.000000 
L_humerus 0.000000 0.000000 0.000000 0.000000 0.000000 0.000000 10.000000 
R_humerus 0.000000 0.000000 0.000000 0.000000 0.000000 0.000000 10.000000 
weapon_bone 0.000000 0.000000 0.000000 0.000000 0.000000 0.000000 10.000000 
Bip01_Head 0.000000 0.000000 0.000000 0.000000 0.000000 0.000000 10.000000 
eye_left_bone 0.000000 0.000000 0.000000 0.000000 0.000000 0.000000 10.000000 
eye_right_bone 0.000000 0.000000 0.000000 0.000000 0.000000 0.000000 10.000000 
L_forearm 0.000000 0.000000 0.000000 0.000000 0.000000 0.000000 10.000000 
L_front_hand 0.000000 0.000000 0.000000 0.000000 0.000000 0.000000 10.000000 
L_weapon_bone 0.000000 0.000000 0.000000 0.000000 0.000000 0.000000 10.000000 
L_front_hand01_01 0.000000 0.000000 0.000000 0.000000 0.000000 0.000000 10.000000 
L_front_hand02_01 0.000000 0.000000 0.000000 0.000000 0.000000 0.000000 10.000000 
L_front_hand03_01 0.000000 0.000000 0.000000 0.000000 0.000000 0.000000 10.000000 
L_front_hand01_02 0.000000 0.000000 0.000000 0.000000 0.000000 0.000000 10.000000 
L_front_hand02_02 0.000000 0.000000 0.000000 0.000000 0.000000 0.000000 10.000000 
L_front_hand03_02 0.000000 0.000000 0.000000 0.000000 0.000000 0.000000 10.000000 
R_forearm 0.000000 0.000000 0.000000 0.000000 0.000000 0.000000 10.000000 
R_front_hand 0.000000 0.000000 0.000000 0.000000 0.000000 0.000000 10.000000 
R_weapon_bone 0.000000 0.000000 0.000000 0.000000 0.000000 0.000000 10.000000 
R_front_hand01_01 0.000000 0.000000 0.000000 0.000000 0.000000 0.000000 10.000000 
R_front_hand02_01 0.000000 0.000000 0.000000 0.000000 0.000000 0.000000 10.000000 
R_front_hand03_01 0.000000 0.000000 0.000000 0.000000 0.000000 0.000000 10.000000 
R_front_hand01_02 0.000000 0.000000 0.000000 0.000000 0.000000 0.000000 10.000000 
R_front_hand02_02 0.000000 0.000000 0.000000 0.000000 0.000000 0.000000 10.000000 
R_front_hand03_02 0.000000 0.000000 0.000000 0.000000 0.000000 0.000000 10.000000 
null_rope01_connect 0.000000 0.000000 0.000000 0.000000 0.000000 0.000000 10.000000 
Rope1_Seg01 0.000000 0.000000 0.000000 0.000000 0.000000 0.000000 10.000000 
Rope1_Seg02 0.000000 0.000000 0.000000 0.000000 0.000000 0.000000 10.000000 
Rope1_Seg03 0.000000 0.000000 0.000000 0.000000 0.000000 0.000000 10.000000 
Rope1_Seg04 0.000000 0.000000 0.000000 0.000000 0.000000 0.000000 10.000000 
Rope1_Seg05 0.000000 0.000000 0.000000 0.000000 0.000000 0.000000 10.000000 
Rope1_Seg06 0.000000 0.000000 0.000000 0.000000 0.000000 0.000000 10.000000 
Rope1_Seg07 0.000000 0.000000 0.000000 0.000000 0.000000 0.000000 10.000000 
Rope1_Seg09 0.000000 0.000000 0.000000 0.000000 0.000000 0.000000 10.000000 
L_mid_hand01 0.000000 0.000000 0.000000 0.000000 0.000000 0.000000 10.000000 
L_mid_hand02 0.000000 0.000000 0.000000 0.000000 0.000000 0.000000 10.000000 
L_mid_hand03 0.000000 0.000000 0.000000 0.000000 0.000000 0.000000 10.000000 
null_rope02_connect 0.000000 0.000000 0.000000 0.000000 0.000000 0.000000 10.000000 
Rope2_Seg01 0.000000 0.000000 0.000000 0.000000 0.000000 0.000000 10.000000 
Rope2_Seg02 0.000000 0.000000 0.000000 0.000000 0.000000 0.000000 10.000000 
Rope2_Seg03 0.000000 0.000000 0.000000 0.000000 0.000000 0.000000 10.000000 
Rope2_Seg04 0.000000 0.000000 0.000000 0.000000 0.000000 0.000000 10.000000 
Rope2_Seg05 0.000000 0.000000 0.000000 0.000000 0.000000 0.000000 10.000000 
Rope2_Seg06 0.000000 0.000000 0.000000 0.000000 0.000000 0.000000 10.000000 
Rope2_Seg07 0.000000 0.000000 0.000000 0.000000 0.000000 0.000000 10.000000 
Rope2_Seg09 0.000000 0.000000 0.000000 0.000000 0.000000 0.000000 10.000000 
R_mid_hand01 0.000000 0.000000 0.000000 0.000000 0.000000 0.000000 10.000000 
R_mid_hand02 0.000000 0.000000 0.000000 0.000000 0.000000 0.000000 10.000000 
R_mid_hand03 0.000000 0.000000 0.000000 0.000000 0.000000 0.000000 10.000000 
spine02 0.000000 0.000000 0.000000 0.000000 0.000000 0.000000 10.000000 
spine03 0.000000 0.000000 0.000000 0.000000 0.000000 0.000000 10.000000 
pelvis 0.000000 0.000000 0.000000 0.000000 0.000000 0.000000 10.000000 
null_rope03_connect 0.000000 0.000000 0.000000 0.000000 0.000000 0.000000 10.000000 
null_rope04_connect 0.000000 0.000000 0.000000 0.000000 0.000000 0.000000 10.000000 
Rope3_Seg01 0.000000 0.000000 0.000000 0.000000 0.000000 0.000000 10.000000 
Rope3_Seg02 0.000000 0.000000 0.000000 0.000000 0.000000 0.000000 10.000000 
Rope3_Seg03 0.000000 0.000000 0.000000 0.000000 0.000000 0.000000 10.000000 
Rope3_Seg04 0.000000 0.000000 0.000000 0.000000 0.000000 0.000000 10.000000 
Rope3_Seg05 0.000000 0.000000 0.000000 0.000000 0.000000 0.000000 10.000000 
Rope3_Seg06 0.000000 0.000000 0.000000 0.000000 0.000000 0.000000 10.000000 
Rope3_Seg07 0.000000 0.000000 0.000000 0.000000 0.000000 0.000000 10.000000 
Rope3_Seg08 0.000000 0.000000 0.000000 0.000000 0.000000 0.000000 10.000000 
Rope3_Seg09 0.000000 0.000000 0.000000 0.000000 0.000000 0.000000 10.000000 
R_rear_hand01 0.000000 0.000000 0.000000 0.000000 0.000000 0.000000 10.000000 
R_rear_hand02 0.000000 0.000000 0.000000 0.000000 0.000000 0.000000 10.000000 
R_rear_hand03 0.000000 0.000000 0.000000 0.000000 0.000000 0.000000 10.000000 
Rope4_Seg01 0.000000 0.000000 0.000000 0.000000 0.000000 0.000000 10.000000 
Rope4_Seg02 0.000000 0.000000 0.000000 0.000000 0.000000 0.000000 10.000000 
Rope4_Seg03 0.000000 0.000000 0.000000 0.000000 0.000000 0.000000 10.000000 
Rope4_Seg04 0.000000 0.000000 0.000000 0.000000 0.000000 0.000000 10.000000 
Rope4_Seg05 0.000000 0.000000 0.000000 0.000000 0.000000 0.000000 10.000000 
Rope4_Seg06 0.000000 0.000000 0.000000 0.000000 0.000000 0.000000 10.000000 
Rope4_Seg07 0.000000 0.000000 0.000000 0.000000 0.000000 0.000000 10.000000 
Rope4_Seg08 0.000000 0.000000 0.000000 0.000000 0.000000 0.000000 10.000000 
Rope4_Seg09 0.000000 0.000000 0.000000 0.000000 0.000000 0.000000 10.000000 
L_rear_hand01 0.000000 0.000000 0.000000 0.000000 0.000000 0.000000 10.000000 
L_rear_hand02 0.000000 0.000000 0.000000 0.000000 0.000000 0.000000 10.000000 
L_rear_hand03 0.000000 0.000000 0.000000 0.000000 0.000000 0.000000 10.000000 
#Beginning of Data. Separated by tabs
#Fr	Tx	Ty	Tz	Rx	Ry	Rz	SF
[MASTER]
34 -57.911892 3138.174316 -262.965393 0.001660 0.001660 0.001660 3149.705322
35 -49.638882 3259.999756 -251.587753 0.001660 0.001660 0.001660 3270.070068
[root]
34 -1.450220 350.642822 1361.902222 -91.610420 -27.289076 -89.843391 1406.317871
35 -4.061230 291.441010 1381.438477 -91.632576 -24.223776 -89.770897 1411.852173
[chest]
34 -84.512650 -34.090519 0.000000 4.541710 -10.681686 168.230774 91.129311
35 -84.512650 -34.090519 0.000000 4.019682 -9.084240 168.745789 91.129311
[L_mid_tent01]
34 27.299181 22.178982 -249.918701 -11.863121 29.612135 44.603722 252.381683
35 27.299183 22.178978 -249.918701 -13.842986 27.426147 39.640125 252.381683
[R_mid_tent01]
34 23.228794 24.509907 226.238495 -178.723740 -28.256468 47.171864 228.744751
35 23.228794 24.509907 226.238495 -176.448547 -27.107437 43.588120 228.744751
[spine01]
34 -0.361383 -0.195265 0.000000 -0.000001 -0.000007 22.052340 0.410763
35 -0.361383 -0.195265 0.000000 -0.000001 -0.000007 22.052340 0.410763
[Bip01_Neck]
34 165.484543 71.581718 0.000119 176.643677 -1.657967 43.431911 180.302734
35 165.484543 71.581718 0.000119 176.643677 -1.657967 43.431911 180.302734
[L_humerus]
34 -13.983130 -135.272980 -120.471481 65.273254 84.925613 155.898453 181.680161
35 -13.983130 -135.272980 -120.471481 35.337379 83.640228 125.854599 181.680161
[R_humerus]
34 -13.983309 -135.273102 125.287651 155.258041 -87.630241 -60.203304 184.909012
35 -13.983309 -135.273102 125.287651 63.829731 -87.592873 31.295309 184.909012
[weapon_bone]
34 235.964890 -300.705902 0.000000 0.000000 -89.951546 -128.212341 382.234833
35 235.964890 -300.705902 0.000000 0.000000 -89.951546 -128.212341 382.234833
[Bip01_Head]
34 203.286133 162.408524 31.616442 23.806807 3.341907 -49.228695 262.109497
35 203.286133 162.408493 31.616446 23.806807 3.341907 -49.228695 262.109467
[eye_left_bone]
34 -24.626970 125.451866 -64.772606 0.000000 -90.000000 -99.840431 143.318359
35 -24.626970 125.451866 -64.772606 0.000000 -90.000000 -99.840431 143.318359
[eye_right_bone]
34 -24.626970 125.451866 64.327362 0.000000 -89.965736 80.156380 143.117676
35 -24.626970 125.451866 64.327362 0.000000 -89.965736 80.156380 143.117676
[L_forearm]
34 322.776093 0.000000 -0.000119 0.000268 0.002332 -76.880173 322.776093
35 322.776093 0.000000 -0.000119 0.000555 0.002281 -62.666256 322.776093
[L_front_hand]
34 241.149185 -0.042021 -3.300071 0.836590 -1.835725 -27.423449 241.171753
35 241.149185 -0.042021 -3.300071 0.836590 -1.835725 -27.423449 241.171753
[L_weapon_bone]
34 156.183838 0.000000 0.000000 0.000014 0.000007 0.000001 156.183838
35 156.183838 0.000000 0.000000 0.000014 0.000007 0.000001 156.183838
[L_front_hand01_01]
34 86.095154 20.947098 -0.655860 -0.366594 -0.477154 75.385582 88.609184
35 86.095154 20.947098 -0.655860 -0.366594 -0.477154 75.385574 88.609184
[L_front_hand02_01]
34 86.935165 -11.437475 24.513514 154.399811 -59.883835 -61.369606 91.046425
35 86.935165 -11.437475 24.513514 154.399796 -59.883835 -61.369587 91.046425
[L_front_hand03_01]
34 86.637497 -14.123976 -20.424902 -153.913849 58.118130 -62.702866 90.126129
35 86.637497 -14.123976 -20.424902 -153.913849 58.118122 -62.702866 90.126129
[L_front_hand01_02]
34 71.020905 -0.000179 0.000030 0.000334 -0.002323 -106.379021 71.020905
35 71.020905 -0.000179 0.000030 0.000334 -0.002323 -106.379684 71.020905
[L_front_hand02_02]
34 71.020927 -0.000119 0.000060 0.000334 -0.002323 -106.379021 71.020927
35 71.020927 -0.000119 0.000060 0.000334 -0.002323 -106.379684 71.020927
[L_front_hand03_02]
34 71.020905 -0.000060 0.000060 0.000334 -0.002323 -106.379021 71.020905
35 71.020905 -0.000060 0.000060 0.000334 -0.002323 -106.379684 71.020905
[R_forearm]
34 322.776428 -0.000060 0.000030 0.203292 -0.061347 -74.090958 322.776428
35 322.776428 -0.000060 0.000030 0.179110 -0.112850 -58.842663 322.776428
[R_front_hand]
34 238.847015 -0.006795 2.210259 42.936222 -10.646152 -26.312963 238.857239
35 238.847015 -0.006795 2.210259 42.936222 -10.646152 -26.312963 238.857239
[R_weapon_bone]
34 155.664093 0.002503 -0.000030 0.003487 0.001180 -90.988930 155.664078
35 155.664093 0.002503 -0.000030 0.003487 0.001180 -90.988930 155.664078
[R_front_hand01_01]
34 87.624611 14.231146 22.918642 -154.633484 -59.950607 61.746044 91.683487
35 87.624611 14.231146 22.918642 -154.633499 -59.950619 61.746044 91.683487
[R_front_hand02_01]
34 89.356956 14.367283 -19.491137 154.602661 58.302864 63.744381 92.579636
35 89.356956 14.367283 -19.491137 154.602661 58.302849 63.744389 92.579636
[R_front_hand03_01]
34 87.286232 -22.307278 -0.143439 0.162155 -0.423168 -75.767921 90.091743
35 87.286232 -22.307278 -0.143439 0.162155 -0.423168 -75.767921 90.091743
[R_front_hand01_02]
34 71.020905 0.000060 0.000119 0.002323 -0.000334 106.381020 71.020905
35 71.020905 0.000060 0.000119 0.002323 -0.000334 106.381721 71.020905
[R_front_hand02_02]
34 71.020844 -0.000030 -0.000119 0.002323 -0.000334 106.381020 71.020836
35 71.020844 -0.000030 -0.000119 0.002323 -0.000334 106.381721 71.020836
[R_front_hand03_02]
34 71.020905 0.000000 0.000030 0.002323 -0.000334 106.381020 71.020905
35 71.020905 0.000000 0.000030 0.002323 -0.000334 106.381721 71.020905
[null_rope01_connect]
34 328.732483 0.000000 -0.000238 -131.447189 -56.925575 -158.810059 328.732483
35 328.732483 0.000000 -0.000238 -134.812042 -58.170490 -153.773941 328.732483
[Rope1_Seg01]
34 0.000000 0.000000 0.000000 19.299244 63.908401 -152.187576 0.000000
35 0.000000 0.000000 0.000000 24.619213 59.593594 -146.161179 0.000000
[Rope1_Seg02]
34 139.999863 -0.000179 0.000000 -0.078825 -4.672679 1.608707 139.999863
35 139.999863 -0.000179 0.000000 -0.242822 -4.039997 -0.083777 139.999863
[Rope1_Seg03]
34 139.999924 0.000060 -0.000060 -0.373857 -5.811306 2.031334 139.999924
35 139.999924 0.000060 -0.000060 -0.518189 -5.193150 0.000442 139.999924
[Rope1_Seg04]
34 139.999924 -0.000060 -0.000119 -2.247378 -13.101201 5.260468 139.999924
35 139.999924 -0.000060 -0.000119 -1.933044 -11.097721 1.397188 139.999924
[Rope1_Seg05]
34 139.999832 0.000119 -0.000060 -0.163483 0.237758 -0.943287 139.999832
35 139.999832 0.000119 -0.000060 -0.049351 2.518726 -2.769922 139.999832
[Rope1_Seg06]
34 139.999954 0.000119 -0.000060 -0.040029 18.598186 -8.894216 139.999954
35 139.999954 0.000119 -0.000060 -0.286802 17.499166 -7.077428 139.999954
[Rope1_Seg07]
34 139.999985 0.000060 0.000000 -0.851660 10.368805 -5.346512 139.999985
35 139.999985 0.000060 0.000000 -1.142120 10.541366 -5.012531 139.999985
[Rope1_Seg09]
34 121.602913 0.000119 -0.000089 -89.793175 -1.359789 0.847147 121.602913
35 121.602913 0.000119 -0.000089 -89.793175 -1.359789 0.847147 121.602913
[L_mid_hand01]
34 103.859421 1.038730 8.195221 130.544373 -67.584534 -38.866943 104.187431
35 103.859421 1.038730 8.195221 130.544373 -67.584534 -38.866943 104.187431
[L_mid_hand02]
34 105.572853 -4.139662 -10.864139 -168.923172 43.409309 -73.498886 106.211075
35 105.572853 -4.139662 -10.864139 -168.923172 43.409309 -73.498886 106.211075
[L_mid_hand03]
34 104.641464 17.579376 -3.913581 -6.012627 17.808174 74.893669 106.179977
35 104.641464 17.579376 -3.913581 -6.012626 17.808172 74.893661 106.179977
[null_rope02_connect]
34 328.732849 0.000179 -0.000119 -110.449776 62.781250 0.026275 328.732849
35 328.732849 0.000179 -0.000119 -114.850166 63.728821 -4.353463 328.732849
[Rope2_Seg01]
34 0.000070 0.000027 0.000000 38.161907 55.511208 -28.327087 0.000075
35 0.000071 0.000023 0.000000 38.655109 53.651211 -27.947004 0.000074
[Rope2_Seg02]
34 139.999741 -0.000060 -0.000119 1.418818 11.498734 2.371693 139.999756
35 139.999741 -0.000060 -0.000119 1.851916 11.709757 3.055901 139.999756
[Rope2_Seg03]
34 140.000107 0.000030 0.000000 -0.039516 34.324493 11.905730 140.000107
35 140.000107 0.000030 0.000000 -0.083125 60.180389 25.750002 140.000107
[Rope2_Seg04]
34 139.999802 0.000000 -0.000060 -25.536655 45.870846 6.567598 139.999802
35 139.999802 0.000000 -0.000060 -59.793800 44.058792 -11.772656 139.999802
[Rope2_Seg05]
34 139.999985 -0.000060 0.000119 -12.670491 16.282331 -2.863554 139.999985
35 139.999985 -0.000060 0.000119 -50.208424 6.648750 5.779574 139.999985
[Rope2_Seg06]
34 139.999893 -0.000030 -0.000119 -17.533123 5.841313 2.217016 139.999893
35 139.999893 -0.000030 -0.000119 -13.509071 -0.086965 3.120035 139.999893
[Rope2_Seg07]
34 139.999893 0.000060 -0.000060 -13.021132 2.629749 2.086654 139.999893
35 139.999893 0.000060 -0.000060 -2.071593 -0.146675 0.548456 139.999893
[Rope2_Seg09]
34 121.338966 0.000089 -0.000060 33.793236 -1.359788 -0.847141 121.338966
35 121.338966 0.000089 -0.000060 33.793236 -1.359788 -0.847141 121.338966
[R_mid_hand01]
34 104.680779 11.144459 -10.335981 -16.212063 45.237247 70.462852 105.778534
35 104.680779 11.144459 -10.335981 -16.212063 45.237247 70.462852 105.778534
[R_mid_hand02]
34 104.070427 2.443552 8.231699 49.067387 -67.749794 39.286469 104.424065
35 104.070427 2.443552 8.231699 49.067368 -67.749771 39.286453 104.424065
[R_mid_hand03]
34 106.028137 -11.221827 -5.996406 -177.101105 15.551026 -76.585571 106.788818
35 106.028137 -11.221827 -5.996406 -177.101105 15.551026 -76.585571 106.788818
[spine02]
34 129.756927 0.001550 0.000119 0.389093 -4.041821 -13.366076 129.756927
35 129.756927 0.001550 0.000119 0.381701 -4.042590 -13.249553 129.756927
[spine03]
34 78.613922 0.081608 -4.899006 1.913843 3.823783 16.755245 78.766457
35 78.613914 0.081612 -4.899006 1.908422 3.827088 16.683422 78.766457
[pelvis]
34 169.435242 0.051022 0.000000 -0.061343 -0.179928 14.646231 169.435257
35 169.435242 0.051022 0.000000 -0.061143 -0.179997 14.519097 169.435257
[null_rope03_connect]
34 -1.257226 -2.466202 137.391083 0.000000 -89.614883 77.211006 137.418976
35 -1.257226 -2.466202 137.391083 0.000000 -89.606331 74.243210 137.418976
[null_rope04_connect]
34 -1.259640 -2.480268 -137.844437 0.000000 -89.614883 77.211006 137.872513
35 -1.259640 -2.480268 -137.844437 0.000000 -89.606331 74.243210 137.872513
[Rope3_Seg01]
34 -0.000035 -0.000258 0.000000 15.556625 5.943909 -89.947021 0.000261
35 -0.000035 -0.000265 0.000000 14.398650 11.011533 -91.500748 0.000267
[Rope3_Seg02]
34 139.999924 -0.000119 0.000060 0.748823 -3.176527 9.377220 139.999924
35 139.999924 -0.000119 0.000060 0.718486 -2.687348 8.119815 139.999924
[Rope3_Seg03]
34 139.999924 -0.000119 0.000119 -0.205429 -2.348784 11.277883 139.999924
35 139.999924 -0.000119 0.000119 -0.023692 -2.314998 10.076713 139.999924
[Rope3_Seg04]
34 139.999924 0.000119 0.000000 -1.538282 -2.164751 11.964709 139.999924
35 139.999924 0.000119 0.000000 -1.187600 -1.860948 11.650593 139.999924
[Rope3_Seg05]
34 139.999924 -0.000238 0.000060 -3.409956 -11.279074 6.611246 139.999924
35 139.999924 -0.000238 0.000060 -1.958603 -8.576542 4.231762 139.999924
[Rope3_Seg06]
34 139.999893 -0.000119 -0.000060 -1.807281 -9.981364 3.536292 139.999893
35 139.999893 -0.000119 -0.000060 -0.765043 -8.266916 1.276850 139.999893
[Rope3_Seg07]
34 139.999771 0.000060 -0.000119 -0.682571 -6.108439 2.980380 139.999771
35 139.999771 0.000060 -0.000119 -0.148436 -5.409171 2.023936 139.999771
[Rope3_Seg08]
34 139.999985 -0.000060 0.000000 -0.104123 -3.840688 1.826266 139.999985
35 139.999985 -0.000060 0.000000 0.197809 -3.572245 1.326569 139.999985
[Rope3_Seg09]
34 90.185997 -0.000179 -0.000060 89.793228 -1.359877 -0.847183 90.185997
35 90.185997 -0.000179 -0.000060 89.793228 -1.359877 -0.847183 90.185997
[R_rear_hand01]
34 103.366196 -6.073594 -10.757982 -177.714203 24.565960 -73.910950 104.101845
35 103.366196 -6.073594 -10.757982 -177.714203 24.565960 -73.910950 104.101845
[R_rear_hand02]
34 100.509819 12.039542 -7.992327 -12.874834 36.868492 72.167213 101.543350
35 100.509819 12.039542 -7.992327 -12.874829 36.868488 72.167213 101.543350
[R_rear_hand03]
34 101.539970 5.215704 5.435467 71.484627 -71.816643 21.513817 101.819031
35 101.539970 5.215704 5.435467 71.484581 -71.816628 21.513813 101.819031
[Rope4_Seg01]
34 0.000010 0.000038 -0.000114 -45.714294 -29.376570 -176.240387 0.000121
35 0.000010 0.000038 -0.000114 -56.050869 -29.715199 -167.147491 0.000121
[Rope4_Seg02]
34 139.999985 0.000060 0.000119 0.412756 5.802917 2.444410 139.999985
35 139.999985 0.000060 0.000119 6.089674 8.029077 -4.059790 139.999985
[Rope4_Seg03]
34 139.999924 0.000000 -0.000238 -12.318075 -6.863180 9.502303 139.999924
35 139.999924 0.000000 -0.000238 -5.078815 -5.322432 3.861312 139.999924
[Rope4_Seg04]
34 139.999985 0.000000 0.000119 10.163372 13.518374 -2.220804 139.999985
35 139.999985 0.000000 0.000119 20.151354 20.857988 -12.307740 139.999985
[Rope4_Seg05]
34 139.999802 -0.000060 -0.000119 66.824478 53.101765 -45.281734 139.999802
35 139.999802 -0.000060 -0.000119 40.490082 32.390568 -53.731190 139.999802
[Rope4_Seg06]
34 139.999924 0.000000 0.000060 8.787701 -9.174632 -17.685720 139.999924
35 139.999924 0.000000 0.000060 5.507629 -4.637440 -13.626884 139.999924
[Rope4_Seg07]
34 139.999802 0.000000 0.000000 1.626833 -3.710901 -5.358034 139.999802
35 139.999802 0.000000 0.000000 1.518580 -2.368806 -5.339958 139.999802
[Rope4_Seg08]
34 139.999924 0.000000 0.000119 -0.922158 -1.854156 -2.531067 139.999924
35 139.999924 0.000000 0.000119 -0.919621 -1.246375 -2.629805 139.999924
[Rope4_Seg09]
34 90.185791 0.000060 0.000060 -135.617828 2.228885 0.850567 90.185791
35 90.185791 0.000060 0.000060 -135.617828 2.228885 0.850567 90.185791
[L_rear_hand01]
34 101.696655 -8.392275 -7.654577 -12.874829 -36.868488 107.832764 102.329041
35 101.696655 -8.392275 -7.654577 -12.874829 -36.868488 107.832764 102.329041
[L_rear_hand02]
34 102.726799 -1.568258 5.773216 71.484581 71.816628 158.486160 102.900848
35 102.726799 -1.568258 5.773216 71.484581 71.816628 158.486160 102.900848
[L_rear_hand03]
34 104.552910 9.721220 -10.420293 -177.714203 -24.565960 -106.089035 105.519653
35 104.552910 9.721220 -10.420293 -177.714203 -24.565960 -106.089035 105.519653
